<?xml version="1.0" encoding="UTF-8"?>
<!DOCTYPE svg PUBLIC "-//W3C//DTD SVG 1.1//EN" "http://www.w3.org/Graphics/SVG/1.1/DTD/svg11.dtd">
<svg xmlns="http://www.w3.org/2000/svg" version="1.1" width="2000px" height="2000px" style="shape-rendering:geometricPrecision; text-rendering:geometricPrecision; image-rendering:optimizeQuality; fill-rule:evenodd; clip-rule:evenodd" xmlns:xlink="http://www.w3.org/1999/xlink">
<g><path style="opacity:1" fill="#000000" d="M 955.5,-0.5 C 984.5,-0.5 1013.5,-0.5 1042.5,-0.5C 1296.09,13.9068 1514.42,108.073 1697.5,282C 1883.43,467.43 1984.1,691.93 1999.5,955.5C 1999.5,984.833 1999.5,1014.17 1999.5,1043.5C 1983.44,1315.4 1877.44,1544.9 1681.5,1732C 1501.87,1896.1 1289.87,1985.27 1045.5,1999.5C 1015.83,1999.5 986.167,1999.5 956.5,1999.5C 666.334,1981.99 426.167,1864.33 236,1646.5C 90.4132,1472.01 11.5799,1270.67 -0.5,1042.5C -0.5,1013.5 -0.5,984.5 -0.5,955.5C 15.6314,683.117 121.965,453.284 318.5,266C 498.569,102.019 710.902,13.1859 955.5,-0.5 Z"/></g>
<g><path style="opacity:1" fill="#f9f9f9" d="M 943.5,42.5 C 1187.17,32.2335 1404.84,101.4 1596.5,250C 1785.4,404.178 1901.56,602.012 1945,843.5C 1983.6,1101.75 1929.27,1338.08 1782,1552.5C 1636.9,1752.38 1443.4,1880.22 1201.5,1936C 960.674,1985.15 733.34,1949.49 519.5,1829C 333.896,1718.72 198.729,1564.22 114,1365.5C 36.992,1173.4 21.6587,976.399 68,774.5C 129.971,532.868 263.471,342.034 468.5,202C 612.531,106.823 770.864,53.656 943.5,42.5 Z"/></g>
<g><path style="opacity:1" fill="#a23838" d="M 998.5,633.5 C 999.635,647.97 1000.3,647.97 1000.5,633.5C 1009.88,529.208 1055.88,445.374 1138.5,382C 1222.81,321.871 1315.81,302.537 1417.5,324C 1526.68,351.521 1605.51,416.021 1654,517.5C 1691.95,606.943 1693.28,696.943 1658,787.5C 1619.63,876.207 1555.79,939.041 1466.5,976C 1433.72,989.055 1399.72,996.555 1364.5,998.5C 1352.61,998.541 1352.61,999.208 1364.5,1000.5C 1465.22,1009.27 1547.38,1052.6 1611,1130.5C 1674.68,1214.91 1696.35,1309.25 1676,1413.5C 1652.83,1511.41 1598.33,1586.24 1512.5,1638C 1422.07,1687.45 1327.73,1696.45 1229.5,1665C 1114.78,1621.62 1041.28,1540.78 1009,1422.5C 1004.77,1403.7 1001.94,1384.7 1000.5,1365.5C 1000.87,1362.6 1000.37,1359.94 999,1357.5C 998.502,1360.48 998.335,1363.48 998.5,1366.5C 985.912,1489.59 926.246,1581.76 819.5,1643C 730.11,1688.34 637.776,1695.34 542.5,1664C 443.397,1625.9 374.563,1557.4 336,1458.5C 301.908,1358.76 310.241,1262.76 361,1170.5C 423.433,1068.34 514.6,1011.68 634.5,1000.5C 638.846,1000.67 643.179,1000.5 647.5,1000C 642.934,998.691 638.267,998.191 633.5,998.5C 535.411,990.209 454.911,948.543 392,873.5C 327.817,791.106 304.15,698.106 321,594.5C 345.552,479.969 410.385,397.135 515.5,346C 600.491,309.075 686.824,305.742 774.5,336C 876.863,376.03 946.363,447.863 983,551.5C 991.828,578.14 996.995,605.473 998.5,633.5 Z"/></g>
<g><path style="opacity:1" fill="#f9f9f9" d="M 1313.5,332.5 C 1424.94,326.165 1517.44,364.499 1591,447.5C 1654.79,526.3 1678.45,615.967 1662,716.5C 1640.66,818.806 1584.49,895.306 1493.5,946C 1411.38,987.055 1326.38,994.055 1238.5,967C 1129.37,926.875 1058.54,851.042 1026,739.5C 1001.11,631.263 1023.11,533.93 1092,447.5C 1150.62,380.093 1224.45,341.759 1313.5,332.5 Z"/></g>
<g><path style="opacity:1" fill="#ca8d8d" d="M 998.5,633.5 C 999.167,633.5 999.833,633.5 1000.5,633.5C 1000.3,647.97 999.635,647.97 998.5,633.5 Z"/></g>
<g><path style="opacity:1" fill="#dab4b4" d="M 1000.5,681.5 C 999.833,681.833 999.167,682.167 998.5,682.5C 998.187,679.753 998.52,677.086 999.5,674.5C 1000.47,676.743 1000.81,679.076 1000.5,681.5 Z"/></g>
<g><path style="opacity:1" fill="#f9f9f9" d="M 1000.5,681.5 C 1012.21,801.824 1069.54,892.99 1172.5,955C 1217.51,980.504 1265.85,995.004 1317.5,998.5C 1317.83,999.167 1318.17,999.833 1318.5,1000.5C 1198.6,1011.67 1107.44,1068.34 1045,1170.5C 1018.7,1216.37 1003.87,1265.7 1000.5,1318.5C 999.833,1318.17 999.167,1317.83 998.5,1317.5C 988.052,1204.05 935.718,1115.88 841.5,1053C 789.661,1021.17 733.327,1003.17 672.5,999C 782.452,991.619 870.285,944.119 936,856.5C 972.387,804.179 993.22,746.179 998.5,682.5C 999.167,682.167 999.833,681.833 1000.5,681.5 Z"/></g>
<g><path style="opacity:1" fill="#bf7877" d="M 633.5,998.5 C 638.267,998.191 642.934,998.691 647.5,1000C 643.179,1000.5 638.846,1000.67 634.5,1000.5C 634.167,999.833 633.833,999.167 633.5,998.5 Z"/></g>
<g><path style="opacity:1" fill="#ba6d6c" d="M 1317.5,998.5 C 1323.84,998.334 1330.18,998.5 1336.5,999C 1330.68,1000.45 1324.68,1000.95 1318.5,1000.5C 1318.17,999.833 1317.83,999.167 1317.5,998.5 Z"/></g>
<g><path style="opacity:1" fill="#d7aaaa" d="M 1364.5,998.5 C 1364.5,999.167 1364.5,999.833 1364.5,1000.5C 1352.61,999.208 1352.61,998.541 1364.5,998.5 Z"/></g>
<g><path style="opacity:1" fill="#f9f9f9" d="M 626.5,1016.5 C 738.938,1009.68 832.438,1048.01 907,1131.5C 980.373,1223.7 1000.71,1326.7 968,1440.5C 934.829,1537.34 870.996,1605.51 776.5,1645C 719.851,1666.83 661.518,1672.83 601.5,1663C 498.692,1642.22 421.525,1586.38 370,1495.5C 319.138,1393.66 318.804,1291.66 369,1189.5C 418.142,1100.72 492.308,1044.89 591.5,1022C 603.277,1019.92 614.943,1018.09 626.5,1016.5 Z"/></g>
<g><path style="opacity:1" fill="#c48281" d="M 998.5,1317.5 C 999.167,1317.83 999.833,1318.17 1000.5,1318.5C 1000.67,1322.85 1000.5,1327.18 1000,1331.5C 998.563,1327.03 998.063,1322.36 998.5,1317.5 Z"/></g>
<g><path style="opacity:1" fill="#dab4b4" d="M 1000.5,1365.5 C 999.833,1365.83 999.167,1366.17 998.5,1366.5C 998.335,1363.48 998.502,1360.48 999,1357.5C 1000.37,1359.94 1000.87,1362.6 1000.5,1365.5 Z"/></g>
</svg>
